<?xml version="1.0"?>
<svg xmlns="http://www.w3.org/2000/svg" height="512px" viewBox="0 0 64 64" width="512px"><g><path d="m32 1a31 31 0 1 0 31 31 31.035 31.035 0 0 0 -31-31zm0 2a29.03 29.03 0 0 1 28.975 28h-11.975c-.018 0-.033.009-.05.01a16.978 16.978 0 0 0 -33.9 0c-.017 0-.032-.01-.05-.01h-11.975a29.03 29.03 0 0 1 28.975-28zm15 29a15 15 0 1 1 -15-15 15.017 15.017 0 0 1 15 15zm-15 29a29.03 29.03 0 0 1 -28.975-28h11.975c.018 0 .033-.009.05-.01a16.978 16.978 0 0 0 33.9 0c.017 0 .032.01.05.01h11.975a29.03 29.03 0 0 1 -28.975 28z" data-original="#000000" class="active-path" data-old_color="#000000" fill="#9FA6B0"/><path d="m6.726 25.811a1 1 0 0 0 1.236-.687 24.788 24.788 0 0 1 .961-2.739 1 1 0 0 0 -1.846-.771 27.076 27.076 0 0 0 -1.039 2.961 1 1 0 0 0 .688 1.236z" data-original="#000000" class="active-path" data-old_color="#000000" fill="#9FA6B0"/><path d="m9.56 18.842a1 1 0 0 0 1.381-.3 24.927 24.927 0 0 1 21.059-11.542 1 1 0 0 0 0-2 26.921 26.921 0 0 0 -22.742 12.46 1 1 0 0 0 .302 1.382z" data-original="#000000" class="active-path" data-old_color="#000000" fill="#9FA6B0"/><path d="m32 21a11 11 0 1 0 11 11 11.013 11.013 0 0 0 -11-11zm0 20a9 9 0 1 1 9-9 9.01 9.01 0 0 1 -9 9z" data-original="#000000" class="active-path" data-old_color="#000000" fill="#9FA6B0"/><path d="m32 28a4 4 0 1 0 4 4 4 4 0 0 0 -4-4zm0 6a2 2 0 1 1 2-2 2 2 0 0 1 -2 2z" data-original="#000000" class="active-path" data-old_color="#000000" fill="#9FA6B0"/></g> </svg>
